<svg viewBox="0 0 80 96" fill="none" xmlns="http://www.w3.org/2000/svg">
<!-- <path fill-rule="evenodd" clip-rule="evenodd" d="M82.7499 11.185C84.9189 12.265 84.999 12.793 84.985 25.903C84.969 39.686 84.6839 41.249 81.9999 42.271C81.1749 42.585 85.6749 42.87 91.9999 42.905C102.118 42.96 103.981 42.698 107.5 40.729C118.321 34.676 118.422 17.899 107.671 12.326C105.374 11.135 101.192 10.597 92.4999 10.374C83.1279 10.133 80.9929 10.311 82.7499 11.185ZM125.966 25.584C121.385 37.011 119.155 41.396 117.609 42.021C116.057 42.648 116.953 42.886 121 42.921C124.801 42.955 126.041 42.679 125.015 42.03C123.702 41.2 123.702 40.595 125.015 36.796L126.5 32.5H131.992H137.485L138.979 37.75L140.474 43L145.987 42.937C149.906 42.892 150.912 42.635 149.465 42.048C146.375 40.796 145.71 39.609 139.5 24.25C136.33 16.412 133.395 10 132.976 10C132.557 10 129.403 17.013 125.966 25.584ZM145.673 11.186C147.21 11.929 149.695 16.68 154.173 27.432C157.653 35.789 160.894 42.736 161.375 42.869C161.856 43.001 165.156 36.448 168.707 28.305C172.259 20.162 176.024 12.756 177.075 11.846C178.891 10.273 178.733 10.19 173.878 10.152C169.721 10.12 169.062 10.335 170.333 11.306C171.718 12.366 171.422 13.711 167.709 23.25C165.408 29.163 163.255 34 162.924 34C162.594 34 160.484 29.163 158.236 23.25C154.539 13.528 154.303 12.381 155.765 11.25C157.103 10.216 156.182 10.012 150.441 10.068C144.848 10.122 143.922 10.339 145.673 11.186ZM182.303 11.15C183.776 11.974 184 13.996 184 26.5C184 39.16 183.788 41.024 182.25 41.92C180.951 42.676 182.305 42.912 187.5 42.833C191.35 42.775 193.523 42.537 192.33 42.305C190.412 41.931 190.077 41.003 189.453 34.339C188.437 23.5 189.349 12.949 191.433 11.425C192.821 10.41 192.036 10.2 186.857 10.2C182.386 10.2 181.089 10.47 182.303 11.15ZM201.869 11.869C203.74 13.74 204 15.142 204 23.36C204 36.095 203.135 41.798 201.121 42.336C200.229 42.573 204.45 42.81 210.5 42.862C223.641 42.974 228.382 41.354 231.988 35.519C234.936 30.75 235.123 22.607 232.393 17.935C229.207 12.481 224.276 10.678 211.187 10.177L199.738 9.73804L201.869 11.869ZM244.635 12.073C242.551 13.711 242 15.006 242 18.258C242 22 242.541 22.872 248.004 27.935C252.414 32.023 254.007 34.198 254.004 36.128C253.999 39.601 251.878 41.208 247.815 40.818C245.172 40.564 244.146 39.791 242.752 37L241.003 33.5L241.002 37.781C241 42.577 242.068 43.424 248.141 43.443C252.71 43.457 256.451 41.5 257.89 38.343C260.373 32.892 258.305 28.141 251.161 22.887C248.869 21.201 246.72 18.731 246.385 17.398C245.013 11.93 252.17 9.85804 255.927 14.635L258 17.27V13.635V10H252.635C248.721 10 246.557 10.561 244.635 12.073ZM272.848 12.018C267.681 14.748 264.847 19.778 264.788 26.324C264.691 37.102 271.055 43.318 282.199 43.328C288.925 43.334 294.865 40.043 297.671 34.754C300.076 30.221 299.987 21.415 297.493 17.229C293.472 10.481 280.821 7.80604 272.848 12.018ZM307.986 23.75C307.971 39 307.56 41.69 305.147 42.33C304.241 42.571 306.2 42.785 309.5 42.805C312.8 42.825 314.825 42.585 314 42.271C311.391 41.278 311.031 39.741 311.015 29.516L311 19.531L322.765 31.266C329.236 37.72 334.861 43 335.265 43C335.669 43 336 36.276 336 28.057C336 13.748 336.094 13.047 338.223 11.557C340.341 10.073 340.166 10 334.5 10C328.834 10 328.659 10.073 330.777 11.557C332.844 13.004 332.997 13.862 332.951 23.807L332.903 34.5L321.132 22.25C314.658 15.512 309.055 10 308.681 10C308.306 10 307.994 16.188 307.986 23.75ZM91.2499 12.64C89.6769 13.303 89.491 36.181 91.035 39.066C91.836 40.562 93.138 40.997 96.785 40.985C102.879 40.966 106.066 39.308 108.311 34.986C110.364 31.035 110.118 22.792 107.835 19.066C105.221 14.798 95.2729 10.944 91.2499 12.64ZM210.25 12.662C208.526 13.358 208.481 38.081 210.2 39.8C212.092 41.692 220.09 41.243 223.699 39.042C229.836 35.3 230.473 23.886 224.899 17.538C221.486 13.65 213.987 11.154 210.25 12.662ZM274.09 14.756C268.618 20.228 269.306 31.506 275.49 37.69C282.264 44.464 291.943 40.823 293.341 30.974C294.285 24.324 292.676 19.024 288.568 15.25C283.829 10.897 278.143 10.703 274.09 14.756ZM129.71 23.955C128.769 26.602 128 28.976 128 29.23C128 29.576 134.495 29.431 135.689 29.059C136.126 28.923 132.753 19.965 132.116 19.572C131.733 19.335 130.65 21.307 129.71 23.955ZM147.166 48.876C146.092 49.557 146.141 49.84 147.416 50.329C148.749 50.841 149 52.997 149 63.919C149 75.227 148.774 77.032 147.25 77.92C145.894 78.71 146.626 78.939 150.5 78.939C154.374 78.939 155.106 78.71 153.75 77.92C152.211 77.024 152 75.158 152 62.45C152 49.349 151.837 48.001 150.25 48.015C149.287 48.024 147.9 48.411 147.166 48.876ZM82.4999 51.334C84.2999 52.688 84.4999 54.007 84.4999 64.5C84.4999 74.889 84.2879 76.316 82.5589 77.581C80.8019 78.866 81.175 79 86.4999 79C91.7199 79 92.172 78.846 90.512 77.633C89.149 76.636 88.6229 74.941 88.5709 71.383C88.5099 67.154 88.7659 66.5 90.4859 66.5C91.7669 66.5 93.629 68.274 95.735 71.5C99.63 77.469 101.53 79.01 104.941 78.97C107.017 78.945 107.196 78.762 105.892 78C105.008 77.483 102.567 74.566 100.468 71.517L96.65 65.975L99.3249 63.183C102.631 59.732 102.876 55.103 99.896 52.405C98.246 50.912 95.924 50.428 89.146 50.165C81.269 49.859 80.6779 49.963 82.4999 51.334ZM88.4089 53.377C88.1179 54.134 88.02 56.947 88.19 59.627C88.473 64.081 88.731 64.527 91.189 64.811C96.603 65.436 100.32 57.463 96.429 53.571C94.491 51.634 89.1279 51.504 88.4089 53.377ZM161.75 55.71C160.787 56.781 160 58.152 160 58.755C160 59.359 159.213 60.059 158.25 60.311C156.583 60.746 156.583 60.774 158.25 60.884C159.751 60.983 160 62.068 160 68.5C160 74.618 160.362 76.362 161.961 77.961C163.675 79.675 164.338 79.774 167.211 78.748L170.5 77.572L167.5 77.029C164.507 76.487 164.499 76.469 164.209 68.813L163.918 61.141L166.709 60.72L169.5 60.3L166.813 60.15C164.579 60.025 164.074 59.475 163.813 56.882C163.507 53.832 163.461 53.806 161.75 55.71ZM111.4 62.4C108.654 65.146 108 66.578 108 69.844C108 77.578 114.67 81.791 120.863 77.968C124.419 75.773 124.625 74.06 121.106 75.943C118.092 77.556 114.145 76.181 112.465 72.932C110.386 68.913 110.623 68.002 113.75 67.989C119.987 67.964 124 66.771 124 64.942C124 62.739 119.447 59 116.765 59C115.684 59 113.27 60.53 111.4 62.4ZM130.75 61.068C128.688 62.157 127 63.46 127 63.965C127 65.349 129.331 66.506 129.727 65.319C129.917 64.749 130.653 63.49 131.362 62.519C133.219 59.979 137 61.359 137 64.577C137 66.508 136.006 67.49 132.25 69.268C126.406 72.036 125.262 75.815 129.44 78.552C131.84 80.125 132.164 80.123 134.626 78.51C136.646 77.186 137.428 77.075 138.018 78.03C138.54 78.874 139.698 79.017 141.643 78.475C143.738 77.892 144.033 77.57 142.75 77.267C141.282 76.92 141 75.683 141 69.582C141 63.807 140.624 61.969 139.171 60.655C136.844 58.549 135.387 58.62 130.75 61.068ZM172.299 61.25C173.223 61.938 175.281 66.1 176.871 70.5C179.994 79.139 179.839 81.414 175.835 85.675C174.711 86.873 174.089 88.335 174.454 88.926C175.453 90.541 176.987 90.219 177.67 88.25C180.732 79.432 188.687 62.632 190.354 61.465C192.323 60.085 192.184 60.001 187.973 60.015C184.909 60.026 183.951 60.316 184.932 60.937C186.108 61.681 186.158 62.53 185.211 65.691C184.577 67.807 183.471 70.341 182.754 71.322C181.586 72.919 181.25 72.517 179.537 67.478C177.896 62.65 177.829 61.721 179.062 60.94C180.04 60.322 178.918 60.026 175.559 60.015C171.378 60.002 170.876 60.192 172.299 61.25ZM113.2 62.2C110.827 64.573 111.878 66 116 66C118.615 66 120 65.55 120 64.7C120 62.913 117.932 61 116 61C115.12 61 113.86 61.54 113.2 62.2ZM133.2 70.243C129.882 71.84 130.478 76.5 134 76.5C136.167 76.5 136.541 76.001 136.81 72.75C137.141 68.75 136.797 68.511 133.2 70.243Z" fill="#1D1743"/> -->
<path d="M29.553 19.052L34.503 14.026L39.453 9L44.453 14L49.453 19L44.503 24.026L39.553 29.052L34.553 24.052L29.553 19.052Z" fill="#1A1919"/>
<path d="M41.003 31.602L45.211 27.314C47.526 24.956 49.776 23.026 50.211 23.026C50.647 23.026 50.984 26.288 50.96 30.276L50.916 37.526L45.971 43.026L41.025 48.526L41.014 40.064L41.003 31.602Z" fill="#1D1743"/>
<path d="M50 40.598L54.714 35.812C57.307 33.18 59.687 31.026 60.003 31.026C60.319 31.026 62.699 33.18 65.292 35.812L70.006 40.598L65.005 45.524L60.003 50.451L55.001 45.524L50 40.598Z" fill="#1A1919"/>
<path d="M9 41.598L13.714 36.812C16.307 34.18 18.687 32.026 19.003 32.026C19.319 32.026 21.699 34.18 24.292 36.812L29.006 41.598L24.005 46.524L19.003 51.451L14.001 46.524L9 41.598Z" fill="#1A1919"/>
<path d="M19.987 52.526L24.745 48.314C27.362 45.998 29.616 44.086 29.753 44.064C29.89 44.043 30.003 47.37 30.003 51.456V58.886L25.041 64.206L20.079 69.526L20.033 61.026L19.987 52.526Z" fill="#1D1743"/>
<path d="M60.987 52.526L65.745 48.314C68.362 45.998 70.615 44.086 70.753 44.064C70.891 44.043 71.003 47.37 71.003 51.456V58.886L66.041 64.206L61.079 69.526L61.033 61.026L60.987 52.526Z" fill="#1D1743"/>
<path d="M29 62.598L33.714 57.812C36.307 55.18 38.914 53.026 39.507 53.026C40.101 53.026 42.581 55.058 45.018 57.541L49.449 62.056L44.239 67.266L39.029 72.476L34.014 67.537L29 62.598Z" fill="#1A1919"/>
<path d="M40.003 74.595L44.753 69.766L49.503 64.938L49.797 72.573L50.09 80.208L45.835 84.867C43.494 87.429 41.225 89.676 40.791 89.859C40.358 90.043 40.003 86.683 40.003 82.394V74.595Z" fill="#1D1743"/>
</svg>